<svg width="323" height="323" viewBox="0 0 323 323" fill="none" xmlns="http://www.w3.org/2000/svg">
<path d="M269.168 134.584C269.168 201.782 194.623 271.765 169.59 293.379C167.258 295.133 164.419 296.081 161.502 296.081C158.584 296.081 155.745 295.133 153.413 293.379C128.381 271.765 53.835 201.782 53.835 134.584C53.835 106.029 65.1784 78.6437 85.3698 58.4523C105.561 38.2609 132.947 26.9175 161.502 26.9175C190.057 26.9175 217.442 38.2609 237.633 58.4523C257.825 78.6437 269.168 106.029 269.168 134.584Z" stroke="white" stroke-width="18.8417" stroke-linecap="round" stroke-linejoin="round"/>
<path d="M161.497 174.958C183.796 174.958 201.872 156.882 201.872 134.583C201.872 112.285 183.796 94.2085 161.497 94.2085C139.199 94.2085 121.122 112.285 121.122 134.583C121.122 156.882 139.199 174.958 161.497 174.958Z" stroke="white" stroke-width="18.8417" stroke-linecap="round" stroke-linejoin="round"/>
</svg>
