<svg width="234" height="234" viewBox="0 0 234 234" fill="none" xmlns="http://www.w3.org/2000/svg">
<path d="M87.75 29.25H39C33.6152 29.25 29.25 33.6152 29.25 39V107.25C29.25 112.635 33.6152 117 39 117H87.75C93.1348 117 97.5 112.635 97.5 107.25V39C97.5 33.6152 93.1348 29.25 87.75 29.25Z" stroke="white" stroke-width="13.65" stroke-linecap="round" stroke-linejoin="round"/>
<path d="M195.001 29.25H146.251C140.866 29.25 136.501 33.6152 136.501 39V68.25C136.501 73.6348 140.866 78 146.251 78H195.001C200.386 78 204.751 73.6348 204.751 68.25V39C204.751 33.6152 200.386 29.25 195.001 29.25Z" stroke="white" stroke-width="13.65" stroke-linecap="round" stroke-linejoin="round"/>
<path d="M195.001 117H146.251C140.866 117 136.501 121.365 136.501 126.75V195C136.501 200.385 140.866 204.75 146.251 204.75H195.001C200.386 204.75 204.751 200.385 204.751 195V126.75C204.751 121.365 200.386 117 195.001 117Z" stroke="white" stroke-width="13.65" stroke-linecap="round" stroke-linejoin="round"/>
<path d="M87.75 156H39C33.6152 156 29.25 160.366 29.25 165.75V195C29.25 200.385 33.6152 204.75 39 204.75H87.75C93.1348 204.75 97.5 200.385 97.5 195V165.75C97.5 160.366 93.1348 156 87.75 156Z" stroke="white" stroke-width="13.65" stroke-linecap="round" stroke-linejoin="round"/>
</svg>
